P2
# Simple pgm image example
4 4
255
0 0 0 0
0 255 255 0
0 255 255 0
0 0 0 0
